<svg xmlns="http://www.w3.org/2000/svg" viewBox="0 0 128 128" role="img" aria-labelledby="title desc">
<title>StrumentoSicuro icon</title><desc>Scudo protettivo con nota musicale</desc>
<path d="M64 8 L108 25 V58 C108 86 91 108 64 120 C37 108 20 86 20 58 V25 Z" fill="#FFFFFF" stroke="#0D1B2A" stroke-width="9" stroke-linejoin="round"/>
<path d="M64 20 L96 32 V58 C96 80 83 98 64 108 C45 98 32 80 32 58 V32 Z" fill="none" stroke="#0D1B2A" stroke-width="3" opacity="0.08"/>
<path d="M72 30 V80 C72 92 63 100 50 100 C39 100 31 94 31 85 C31 76 39 70 50 70 C56 70 61 72 64 75 V30 Z" fill="#F2B705"/>
<path d="M72 30 C88 36 95 47 94 61 C87 54 82 51 72 49 Z" fill="#F2B705"/>
</svg>