<svg xmlns="http://www.w3.org/2000/svg" viewBox="0 0 128 128" role="img" aria-labelledby="title desc">
<title>StrumentoSicuro icon dark</title><desc>Scudo protettivo con nota musicale su sfondo scuro</desc>
<rect width="128" height="128" rx="28" fill="#0D1B2A"/>
<path d="M64 14 L106 30 V60 C106 87 90 107 64 118 C38 107 22 87 22 60 V30 Z" fill="none" stroke="#FFFFFF" stroke-width="8" stroke-linejoin="round"/>
<path d="M72 34 V80 C72 92 63 100 51 100 C41 100 34 94 34 86 C34 78 42 72 51 72 C57 72 62 74 65 77 V34 Z" fill="#F2B705"/>
<path d="M72 34 C87 40 94 50 93 63 C86 57 82 54 72 52 Z" fill="#F2B705"/>
</svg>