<svg xmlns="http://www.w3.org/2000/svg" viewBox="0 0 760 160" role="img" aria-labelledby="title desc">
<title>StrumentoSicuro</title><desc>Logo StrumentoSicuro con scudo e nota musicale</desc>
<g transform="translate(0,10) scale(1.05)">
  <path d="M64 8 L108 25 V58 C108 86 91 108 64 120 C37 108 20 86 20 58 V25 Z" fill="#FFFFFF" stroke="#0D1B2A" stroke-width="9" stroke-linejoin="round"/>
  <path d="M72 30 V80 C72 92 63 100 50 100 C39 100 31 94 31 85 C31 76 39 70 50 70 C56 70 61 72 64 75 V30 Z" fill="#F2B705"/>
  <path d="M72 30 C88 36 95 47 94 61 C87 54 82 51 72 49 Z" fill="#F2B705"/>
</g>
<text x="150" y="88" font-family="Inter, Poppins, Arial, sans-serif" font-size="58" font-weight="800" letter-spacing="-2.6" fill="#0D1B2A">Strumento</text>
<text x="455" y="88" font-family="Inter, Poppins, Arial, sans-serif" font-size="58" font-weight="800" letter-spacing="-2.6" fill="#F2B705">Sicuro</text>
<text x="153" y="125" font-family="Inter, Poppins, Arial, sans-serif" font-size="18" font-weight="700" letter-spacing="3" fill="#0D1B2A">COMPRAVENDITE PROTETTE DI STRUMENTI MUSICALI</text>
</svg>