<svg xmlns="http://www.w3.org/2000/svg" viewBox="0 0 1180 300" role="img" aria-label="StrumentoSicuro">
  <defs>
    <style>
      .word { font-family: Georgia, 'Times New Roman', serif; font-size: 112px; font-weight: 500; letter-spacing: -5px; }
    </style>
  </defs>
  <g transform="translate(12 4) scale(0.57)">
  <defs>
    <linearGradient id="g" x1="0" x2="1" y1="0" y2="1">
      <stop offset="0" stop-color="#f1b544"/>
      <stop offset="1" stop-color="#d99a20"/>
    </linearGradient>
    <filter id="shadow" x="-20%" y="-20%" width="140%" height="140%">
      <feDropShadow dx="0" dy="8" stdDeviation="10" flood-color="#061f3f" flood-opacity="0.12"/>
    </filter>
  </defs>

  <!-- exchange arrows -->
  <path d="M113 334C72 269 83 179 139 126" fill="none" stroke="#061f3f" stroke-width="18" stroke-linecap="round"/>
  <path d="M122 121l62-7-33 53z" fill="#061f3f"/>
  <path d="M399 178c42 65 31 155-25 208" fill="none" stroke="url(#g)" stroke-width="18" stroke-linecap="round"/>
  <path d="M390 391l-62 7 33-53z" fill="url(#g)"/>

  <!-- box -->
  <g filter="url(#shadow)">
    <path d="M139 215l116 52v135L139 340z" fill="#061f3f"/>
    <path d="M373 215l-118 52v135l118-62z" fill="#08284f"/>
    <path d="M139 215l116-54 118 54-118 52z" fill="#0a315f"/>
    <path d="M139 215l80-81 36 27z" fill="#061f3f"/>
    <path d="M373 215l-82-81-36 27z" fill="#061f3f"/>
    <path d="M255 161v241" stroke="white" stroke-opacity="0.92" stroke-width="8"/>
    <path d="M139 215l116 52 118-52" fill="none" stroke="white" stroke-opacity="0.92" stroke-width="8" stroke-linejoin="round"/>
  </g>

  <!-- guitar neck/headstock -->
  <g>
    <path d="M226 103h60v157h-60z" fill="url(#g)"/>
    <path d="M222 58c16-11 52-11 68 0v53c-18 10-50 10-68 0z" fill="url(#g)"/>
    <path d="M238 62v198M256 58v202M274 62v198" stroke="white" stroke-width="4" stroke-linecap="round" opacity="0.8"/>
    <path d="M228 129h56M228 152h56M228 175h56M228 198h56M228 221h56" stroke="white" stroke-width="3" opacity="0.75"/>
    <circle cx="208" cy="75" r="10" fill="url(#g)"/><circle cx="208" cy="105" r="10" fill="url(#g)"/><circle cx="208" cy="135" r="10" fill="url(#g)"/>
    <circle cx="304" cy="75" r="10" fill="url(#g)"/><circle cx="304" cy="105" r="10" fill="url(#g)"/><circle cx="304" cy="135" r="10" fill="url(#g)"/>
    <path d="M218 75h-24M218 105h-24M218 135h-24M294 75h24M294 105h24M294 135h24" stroke="url(#g)" stroke-width="8" stroke-linecap="round"/>
  </g>

  <!-- shield/check -->
  <g>
    <path d="M335 275c27 11 50 11 77 0v45c0 39-24 66-77 85-53-19-77-46-77-85v-45c27 11 50 11 77 0z" fill="white"/>
    <path d="M335 290c22 9 40 9 62 0v31c0 29-18 49-62 65-44-16-62-36-62-65v-31c22 9 40 9 62 0z" fill="url(#g)"/>
    <path d="M306 335l22 22 43-55" fill="none" stroke="white" stroke-width="15" stroke-linecap="round" stroke-linejoin="round"/>
  </g>
</g>
  <text class="word" x="330" y="177" fill="#061f3f">Strumento</text>
  <text class="word" x="840" y="177" fill="#d99a20">Sicuro</text>
  <text x="336" y="225" font-family="Inter, Arial, sans-serif" font-size="28" font-weight="600" letter-spacing=".5" fill="#64748b">Compravendite protette per strumenti musicali usati</text>
</svg>